<mxfile host="app.diagrams.net" agent="Mozilla/5.0 (Windows NT 10.0; Win64; x64) AppleWebKit/537.36 (KHTML, like Gecko) Chrome/136.0.0.0 Safari/537.36" border="50" scale="3" compressed="false" locked="false" version="27.0.3">
  <diagram name="Blank" id="YmL12bMKpDGza6XwsDPr">
    <mxGraphModel dx="1678" dy="924" grid="0" gridSize="10" guides="1" tooltips="1" connect="1" arrows="1" fold="1" page="1" pageScale="1" pageWidth="827" pageHeight="1169" background="none" math="1" shadow="0">
      <root>
        <mxCell id="X5NqExCQtvZxIxQ7pmgY-0" />
        <mxCell id="1" parent="X5NqExCQtvZxIxQ7pmgY-0" />
        <mxCell id="Z9jmcAp48-CgpIdn1kDd-1" value="&lt;font style=&quot;font-size: 20px;&quot; face=&quot;Times New Roman&quot;&gt;&lt;b style=&quot;&quot;&gt;1&lt;/b&gt;&lt;/font&gt;" style="shape=step;perimeter=stepPerimeter;whiteSpace=wrap;html=1;fixedSize=1;size=10;direction=south;fillColor=#f5f5f5;strokeColor=#666666;rounded=0;fontColor=#333333;" parent="1" vertex="1">
          <mxGeometry x="272" y="86" width="70" height="80" as="geometry" />
        </mxCell>
        <mxCell id="Z9jmcAp48-CgpIdn1kDd-2" value="&lt;font style=&quot;font-size: 20px;&quot;&gt;&lt;b&gt;2&lt;/b&gt;&lt;/font&gt;" style="shape=step;perimeter=stepPerimeter;whiteSpace=wrap;html=1;fixedSize=1;size=10;direction=south;fillColor=#f5f5f5;strokeColor=#666666;rounded=0;fontColor=#333333;" parent="1" vertex="1">
          <mxGeometry x="272" y="166" width="70" height="80" as="geometry" />
        </mxCell>
        <mxCell id="Z9jmcAp48-CgpIdn1kDd-3" value="&lt;b&gt;&lt;font style=&quot;font-size: 20px;&quot;&gt;3&lt;/font&gt;&lt;/b&gt;" style="shape=step;perimeter=stepPerimeter;whiteSpace=wrap;html=1;fixedSize=1;size=10;direction=south;fillColor=#f5f5f5;strokeColor=#666666;rounded=0;fontColor=#333333;" parent="1" vertex="1">
          <mxGeometry x="272" y="246" width="70" height="80" as="geometry" />
        </mxCell>
        <mxCell id="Z9jmcAp48-CgpIdn1kDd-4" value="&lt;font style=&quot;font-size: 20px;&quot; face=&quot;Times New Roman&quot;&gt;&lt;b&gt;4&lt;/b&gt;&lt;/font&gt;" style="shape=step;perimeter=stepPerimeter;whiteSpace=wrap;html=1;fixedSize=1;size=10;direction=south;fillColor=#f5f5f5;strokeColor=#666666;rounded=0;fontColor=#333333;" parent="1" vertex="1">
          <mxGeometry x="272" y="326" width="70" height="80" as="geometry" />
        </mxCell>
        <mxCell id="Z9jmcAp48-CgpIdn1kDd-5" value="&lt;b&gt;&lt;font style=&quot;font-size: 20px;&quot;&gt;5&lt;/font&gt;&lt;/b&gt;" style="shape=step;perimeter=stepPerimeter;whiteSpace=wrap;html=1;fixedSize=1;size=10;direction=south;fillColor=#f5f5f5;strokeColor=#666666;rounded=0;fontColor=#333333;" parent="1" vertex="1">
          <mxGeometry x="272" y="406" width="70" height="80" as="geometry" />
        </mxCell>
        <mxCell id="Z9jmcAp48-CgpIdn1kDd-6" value="&lt;font face=&quot;Times New Roman&quot; style=&quot;font-size: 10px; color: rgb(0, 0, 0);&quot;&gt;&lt;b&gt;&lt;font style=&quot;font-size: 12px;&quot;&gt;Coleta dos Dados&lt;/font&gt;&lt;br&gt;&lt;br&gt;&lt;font size=&quot;1&quot;&gt;Buscar dados educacionais(IDEB, ENEM, despesas) de diversas fontes&lt;/font&gt;&lt;/b&gt;&lt;/font&gt;" style="rounded=1;strokeColor=none;fillColor=#EEEEEE;align=center;arcSize=12;verticalAlign=top;whiteSpace=wrap;html=1;fontSize=12;" parent="1" vertex="1">
          <mxGeometry x="372" y="86" width="200" height="70" as="geometry" />
        </mxCell>
        <mxCell id="Z9jmcAp48-CgpIdn1kDd-7" value="&lt;font face=&quot;Times New Roman&quot; style=&quot;font-size: 10px; color: rgb(0, 0, 0);&quot;&gt;&lt;b&gt;&lt;font style=&quot;font-size: 12px;&quot;&gt;Pré-processamento dos Dados&lt;/font&gt;&lt;br&gt;&lt;br&gt;&lt;font size=&quot;1&quot;&gt;Corrigir erros, lidar com informações faltantes, padronizar.&lt;/font&gt;&lt;/b&gt;&lt;/font&gt;" style="rounded=1;strokeColor=none;fillColor=#EEEEEE;align=center;arcSize=12;verticalAlign=top;whiteSpace=wrap;html=1;fontSize=12;" parent="1" vertex="1">
          <mxGeometry x="372" y="166" width="200" height="70" as="geometry" />
        </mxCell>
        <mxCell id="Z9jmcAp48-CgpIdn1kDd-8" value="&lt;font style=&quot;&quot;&gt;&lt;font style=&quot;color: rgb(0, 0, 0);&quot; face=&quot;Times New Roman&quot;&gt;&lt;b style=&quot;&quot;&gt;Criação de Tabelas no Banco&lt;/b&gt;&lt;/font&gt;&lt;/font&gt;&lt;div&gt;&lt;font style=&quot;color: rgb(0, 0, 0);&quot; face=&quot;Times New Roman&quot;&gt;&lt;b&gt;de Dados&lt;/b&gt;&lt;/font&gt;&lt;div&gt;&lt;div&gt;&lt;font face=&quot;Times New Roman&quot; style=&quot;color: rgb(0, 0, 0);&quot;&gt;&lt;span style=&quot;font-size: x-small;&quot;&gt;&lt;b&gt;Criar tabelas para o armazenamento dos dados de acordo com os tipos das colunas.&lt;/b&gt;&lt;/span&gt;&lt;/font&gt;&lt;/div&gt;&lt;/div&gt;&lt;/div&gt;" style="rounded=1;strokeColor=none;fillColor=#EEEEEE;align=center;arcSize=12;verticalAlign=top;whiteSpace=wrap;html=1;fontSize=12;" parent="1" vertex="1">
          <mxGeometry x="372" y="246" width="200" height="70" as="geometry" />
        </mxCell>
        <mxCell id="Z9jmcAp48-CgpIdn1kDd-9" value="&lt;font face=&quot;Times New Roman&quot; style=&quot;font-size: 10px; color: rgb(0, 0, 0);&quot;&gt;&lt;b&gt;&lt;font style=&quot;font-size: 12px;&quot;&gt;Persistência no Banco de Dados&lt;/font&gt;&lt;br&gt;&lt;br&gt;&lt;font size=&quot;1&quot;&gt;Armazenar informações no banco para uso posterior.&lt;/font&gt;&lt;/b&gt;&lt;/font&gt;" style="rounded=1;strokeColor=none;fillColor=#EEEEEE;align=center;arcSize=12;verticalAlign=top;whiteSpace=wrap;html=1;fontSize=12;" parent="1" vertex="1">
          <mxGeometry x="372" y="326" width="200" height="70" as="geometry" />
        </mxCell>
        <mxCell id="Z9jmcAp48-CgpIdn1kDd-10" value="&lt;font face=&quot;Times New Roman&quot; style=&quot;color: rgb(0, 0, 0);&quot;&gt;&lt;b&gt;&lt;font&gt;&lt;font style=&quot;font-size: 12px;&quot;&gt;Formulação das Views&lt;/font&gt;&lt;br&gt;&lt;/font&gt;&lt;br&gt;&lt;font size=&quot;1&quot;&gt;Implementar modelos para visualização dos dados para simplificar as consultas.&lt;/font&gt;&lt;/b&gt;&lt;/font&gt;" style="rounded=1;strokeColor=none;fillColor=#EEEEEE;align=center;arcSize=12;verticalAlign=top;whiteSpace=wrap;html=1;fontSize=12;" parent="1" vertex="1">
          <mxGeometry x="372" y="406" width="200" height="70" as="geometry" />
        </mxCell>
        <mxCell id="Z9jmcAp48-CgpIdn1kDd-16" value="&lt;font style=&quot;font-size: 20px;&quot;&gt;&lt;b&gt;6&lt;/b&gt;&lt;/font&gt;" style="shape=step;perimeter=stepPerimeter;whiteSpace=wrap;html=1;fixedSize=1;size=10;direction=south;fillColor=#f5f5f5;strokeColor=#666666;rounded=0;fontColor=#333333;" parent="1" vertex="1">
          <mxGeometry x="272" y="486" width="70" height="80" as="geometry" />
        </mxCell>
        <mxCell id="Z9jmcAp48-CgpIdn1kDd-17" value="&lt;font face=&quot;Times New Roman&quot; style=&quot;color: rgb(0, 0, 0);&quot;&gt;&lt;b&gt;&lt;font style=&quot;font-size: 10px;&quot;&gt;&lt;font style=&quot;font-size: 12px;&quot;&gt;Implementação da API&lt;/font&gt;&lt;br&gt;&lt;/font&gt;&lt;br&gt;&lt;font size=&quot;1&quot;&gt;Desenvolver interface para recuperar e expor os dados das Views.&lt;/font&gt;&lt;/b&gt;&lt;/font&gt;" style="rounded=1;strokeColor=none;fillColor=#EEEEEE;align=center;arcSize=12;verticalAlign=top;whiteSpace=wrap;html=1;fontSize=12;" parent="1" vertex="1">
          <mxGeometry x="372" y="491" width="200" height="70" as="geometry" />
        </mxCell>
        <mxCell id="Z9jmcAp48-CgpIdn1kDd-18" value="&lt;font style=&quot;font-size: 20px;&quot; face=&quot;Times New Roman&quot;&gt;&lt;b&gt;7&lt;/b&gt;&lt;/font&gt;" style="shape=step;perimeter=stepPerimeter;whiteSpace=wrap;html=1;fixedSize=1;size=10;direction=south;fillColor=#f5f5f5;strokeColor=#666666;rounded=0;fontColor=#333333;" parent="1" vertex="1">
          <mxGeometry x="272" y="570" width="70" height="80" as="geometry" />
        </mxCell>
        <mxCell id="Z9jmcAp48-CgpIdn1kDd-19" value="&lt;font face=&quot;Times New Roman&quot; style=&quot;font-size: 10px; color: rgb(0, 0, 0);&quot;&gt;&lt;b&gt;&lt;font style=&quot;font-size: 12px;&quot;&gt;Criação da Interface&lt;/font&gt;&lt;br&gt;&lt;br&gt;&lt;font size=&quot;1&quot;&gt;Criar elementos de gráfico, filtro, mapa.&lt;/font&gt;&lt;/b&gt;&lt;/font&gt;" style="rounded=1;strokeColor=none;fillColor=#EEEEEE;align=center;arcSize=12;verticalAlign=top;whiteSpace=wrap;html=1;fontSize=12;" parent="1" vertex="1">
          <mxGeometry x="372" y="575" width="200" height="70" as="geometry" />
        </mxCell>
        <mxCell id="Z9jmcAp48-CgpIdn1kDd-22" value="&lt;font style=&quot;font-size: 20px;&quot; face=&quot;Times New Roman&quot;&gt;&lt;b&gt;8&lt;/b&gt;&lt;/font&gt;" style="shape=step;perimeter=stepPerimeter;whiteSpace=wrap;html=1;fixedSize=1;size=10;direction=south;fillColor=#f5f5f5;strokeColor=#666666;rounded=0;fontColor=#333333;" parent="1" vertex="1">
          <mxGeometry x="272" y="658" width="70" height="80" as="geometry" />
        </mxCell>
        <mxCell id="Z9jmcAp48-CgpIdn1kDd-23" value="&lt;font face=&quot;Times New Roman&quot; style=&quot;color: rgb(0, 0, 0);&quot;&gt;&lt;font style=&quot;color: light-dark(rgb(0, 0, 0), rgb(237, 237, 237)); font-size: 12px; font-weight: bold;&quot;&gt;Deploy da Aplicação&lt;/font&gt;&lt;br&gt;&lt;br&gt;&lt;font size=&quot;1&quot;&gt;&lt;b&gt;Publicar aplicação na internet para acesso por meio de link&lt;/b&gt;&lt;/font&gt;&lt;/font&gt;" style="rounded=1;strokeColor=none;fillColor=#EEEEEE;align=center;arcSize=12;verticalAlign=top;whiteSpace=wrap;html=1;fontSize=12;" parent="1" vertex="1">
          <mxGeometry x="372" y="663" width="200" height="70" as="geometry" />
        </mxCell>
      </root>
    </mxGraphModel>
  </diagram>
</mxfile>
